<svg width="30" height="31" viewBox="0 0 30 31" fill="none" xmlns="http://www.w3.org/2000/svg">
<path opacity="0.25" d="M14.6839 25.888C20.3282 25.888 24.9039 21.3123 24.9039 15.668C24.9039 10.0236 20.3282 5.448 14.6839 5.448C9.03952 5.448 4.46387 10.0236 4.46387 15.668C4.46387 21.3123 9.03952 25.888 14.6839 25.888Z" fill="#5E81F4"/>
<path opacity="0.5" d="M6.29191 13.772C3.74875 13.7711 1.4562 12.2394 0.482044 9.89017C-0.492114 7.54099 0.043695 4.83636 1.83991 3.03601C4.29683 0.580322 8.27899 0.580322 10.7359 3.03601C11.9162 4.21538 12.5793 5.81549 12.5793 7.48401C12.5793 9.15253 11.9162 10.7526 10.7359 11.932C9.56023 13.1149 7.95969 13.7776 6.29191 13.772Z" fill="#5E81F4"/>
<path opacity="0.5" d="M23.3078 30.396C20.3054 30.3971 17.7206 28.2768 17.1346 25.3322C16.5486 22.3876 18.1246 19.4392 20.8986 18.2906C23.6725 17.1421 26.8715 18.1134 28.5386 20.6105C30.2056 23.1075 29.8761 26.4344 27.7518 28.556C26.5751 29.7374 24.9752 30.3998 23.3078 30.396Z" fill="#5E81F4"/>
<path d="M6.45982 30.328C3.91521 30.3303 1.6197 28.7998 0.643489 26.4499C-0.332721 24.1 0.202579 21.3934 1.99982 19.592C2.27458 19.3241 2.57314 19.0818 2.89182 18.868L3.19982 18.672C3.41582 18.544 3.63982 18.428 3.87582 18.316C3.99582 18.264 4.11582 18.208 4.24782 18.16C4.4934 18.0703 4.74461 17.9968 4.99982 17.94L5.15982 17.896C5.18727 17.8862 5.21533 17.8782 5.24382 17.872L6.66782 17.768C6.85182 17.768 7.06782 17.804 7.26382 17.832H7.30782H7.49582H7.55582H7.61582H7.99982C10.4615 17.8091 12.8114 16.8006 14.5238 15.032C16.2458 13.2768 17.1886 10.9023 17.1398 8.44401V8.37601V8.30801C17.1257 8.23144 17.1177 8.15386 17.1158 8.07601V7.88401L17.0638 7.70001C17.0638 7.58801 17.0358 7.46801 17.0318 7.35201L17.1278 6.03201V6.00001V5.97601C17.1278 5.94401 17.1878 5.76801 17.1878 5.76801C17.2486 5.49683 17.3261 5.22965 17.4198 4.96801C17.4638 4.84801 17.5198 4.72801 17.5758 4.60801C17.6808 4.37115 17.8011 4.14133 17.9358 3.92001V3.88401C17.9918 3.79201 18.0438 3.70001 18.1078 3.61201C18.318 3.29533 18.5577 2.99934 18.8238 2.72801C21.2848 0.262613 25.2784 0.259032 27.7438 2.72001C30.2092 5.18099 30.2128 9.17461 27.7518 11.64C27.4786 11.9056 27.1813 12.1453 26.8638 12.356C26.7678 12.424 26.6838 12.472 26.5998 12.524L26.5518 12.552C26.3198 12.688 26.0958 12.808 25.8798 12.908C25.7518 12.964 25.6358 13.02 25.5158 13.064C25.2634 13.1557 25.0056 13.2318 24.7438 13.292C24.6884 13.3038 24.6337 13.3185 24.5798 13.336L24.4798 13.364L23.0838 13.46C22.9078 13.46 22.7198 13.428 22.5238 13.404H22.4358H22.2558H22.1398H22.0758H21.7638C16.6621 13.4786 12.5775 17.6579 12.6198 22.76V22.828V22.9C12.6306 22.9702 12.6373 23.041 12.6398 23.112C12.6398 23.188 12.6398 23.26 12.6598 23.332C12.6798 23.404 12.6598 23.468 12.6838 23.54C12.6978 23.6435 12.7058 23.7476 12.7078 23.852L12.6078 25.224C12.6004 25.2605 12.591 25.2965 12.5798 25.332L12.5438 25.456C12.4866 25.7277 12.4104 25.995 12.3158 26.256C12.2718 26.376 12.2118 26.5 12.1558 26.624C12.0542 26.855 11.9407 27.0807 11.8158 27.3C11.7518 27.412 11.6918 27.512 11.6238 27.608C11.4119 27.928 11.1694 28.2268 10.8998 28.5C9.72411 29.6804 8.12587 30.3428 6.45982 30.34V30.328Z" fill="#5E81F4"/>
</svg>
