<svg width="19" height="7" viewBox="0 0 19 7" fill="none" xmlns="http://www.w3.org/2000/svg">
<path d="M9.04346 1.75C7.82471 1.75 6.67627 1.92578 5.59814 2.27734V4.59766C5.59814 4.94922 5.45752 5.18359 5.17627 5.30078C4.42627 5.65234 3.7583 6.10938 3.17236 6.67188C3.03174 6.8125 2.85596 6.88281 2.64502 6.88281C2.43408 6.88281 2.2583 6.8125 2.11768 6.67188L0.254395 4.80859C0.11377 4.66797 0.043457 4.49219 0.043457 4.28125C0.043457 4.07031 0.11377 3.89453 0.254395 3.75391C2.71533 1.41016 5.64502 0.238281 9.04346 0.238281C12.4419 0.238281 15.3716 1.41016 17.8325 3.75391C17.9731 3.89453 18.0435 4.07031 18.0435 4.28125C18.0435 4.49219 17.9731 4.66797 17.8325 4.80859L15.9692 6.67188C15.8286 6.8125 15.6528 6.88281 15.4419 6.88281C15.231 6.88281 15.0552 6.8125 14.9146 6.67188C14.3989 6.17969 13.731 5.72266 12.9106 5.30078C12.6294 5.18359 12.4888 4.96094 12.4888 4.63281V2.3125C11.3169 1.9375 10.1685 1.75 9.04346 1.75Z" fill="white"/>
</svg>
