<svg width="16" height="16" viewBox="0 0 16 16" fill="none" xmlns="http://www.w3.org/2000/svg">
<path d="M6.13672 9.86328C6.65234 10.3789 7.27344 10.6367 8 10.6367C8.72656 10.6367 9.34766 10.3789 9.86328 9.86328C10.3789 9.34766 10.6367 8.72656 10.6367 8C10.6367 7.27344 10.3789 6.65234 9.86328 6.13672C9.34766 5.62109 8.72656 5.36328 8 5.36328C7.27344 5.36328 6.65234 5.62109 6.13672 6.13672C5.62109 6.65234 5.36328 7.27344 5.36328 8C5.36328 8.72656 5.62109 9.34766 6.13672 9.86328ZM13.5898 8.73828L15.1719 9.96875C15.3359 10.0859 15.3594 10.25 15.2422 10.4609L13.7305 13.0625C13.6367 13.2266 13.4844 13.2734 13.2734 13.2031L11.4102 12.4648C10.918 12.8164 10.4961 13.0625 10.1445 13.2031L9.86328 15.1719C9.81641 15.3828 9.69922 15.4883 9.51172 15.4883H6.48828C6.30078 15.4883 6.18359 15.3828 6.13672 15.1719L5.85547 13.2031C5.41016 13.0156 4.98828 12.7695 4.58984 12.4648L2.72656 13.2031C2.51562 13.2734 2.36328 13.2266 2.26953 13.0625L0.757812 10.4609C0.640625 10.25 0.664062 10.0859 0.828125 9.96875L2.41016 8.73828C2.38672 8.57422 2.375 8.32812 2.375 8C2.375 7.67188 2.38672 7.42578 2.41016 7.26172L0.828125 6.03125C0.664062 5.91406 0.640625 5.75 0.757812 5.53906L2.26953 2.9375C2.36328 2.77344 2.51562 2.72656 2.72656 2.79688L4.58984 3.53516C5.08203 3.18359 5.50391 2.9375 5.85547 2.79688L6.13672 0.828125C6.18359 0.617188 6.30078 0.511719 6.48828 0.511719H9.51172C9.69922 0.511719 9.81641 0.617188 9.86328 0.828125L10.1445 2.79688C10.5898 2.98437 11.0117 3.23047 11.4102 3.53516L13.2734 2.79688C13.4844 2.72656 13.6367 2.77344 13.7305 2.9375L15.2422 5.53906C15.3594 5.75 15.3359 5.91406 15.1719 6.03125L13.5898 7.26172C13.6133 7.42578 13.625 7.67188 13.625 8C13.625 8.32812 13.6133 8.57422 13.5898 8.73828Z" fill="#6B59CC"/>
</svg>
