<svg width="15" height="15" viewBox="0 0 15 15" fill="none" xmlns="http://www.w3.org/2000/svg">
<path d="M1.46094 0.511719L14.75 13.8008L13.8008 14.75L11.4102 12.3594C11.2695 12.4531 11.1289 12.5 10.9883 12.5H1.98828C1.77734 12.5 1.60156 12.4297 1.46094 12.2891C1.32031 12.1484 1.25 11.9727 1.25 11.7617V4.23828C1.25 4.02734 1.32031 3.85156 1.46094 3.71094C1.60156 3.57031 1.77734 3.5 1.98828 3.5H2.55078L0.511719 1.46094L1.46094 0.511719ZM14.75 3.88672V11.9023L6.34766 3.5H10.9883C11.1992 3.5 11.375 3.57031 11.5156 3.71094C11.6797 3.85156 11.7617 4.02734 11.7617 4.23828V6.875L14.75 3.88672Z" fill="#6B59CC"/>
</svg>
