<svg width="14" height="10" viewBox="0 0 14 10" fill="none" xmlns="http://www.w3.org/2000/svg">
<path d="M10.7617 3.875L13.75 0.886719V9.11328L10.7617 6.125V8.76172C10.7617 8.97266 10.6797 9.14844 10.5156 9.28906C10.375 9.42969 10.1992 9.5 9.98828 9.5H0.988281C0.777344 9.5 0.601562 9.42969 0.460938 9.28906C0.320312 9.14844 0.25 8.97266 0.25 8.76172V1.23828C0.25 1.02734 0.320312 0.851562 0.460938 0.710938C0.601562 0.570312 0.777344 0.5 0.988281 0.5H9.98828C10.1992 0.5 10.375 0.570312 10.5156 0.710938C10.6797 0.851562 10.7617 1.02734 10.7617 1.23828V3.875Z" fill="#6B59CC"/>
</svg>
