<svg xmlns="http://www.w3.org/2000/svg" width="44" height="44" fill="none" viewBox="0 0 44 44">
  <rect width="44" height="44" fill="#6B59CC" rx="14"/>
  <mask id="a" width="44" height="44" x="0" y="0" maskUnits="userSpaceOnUse" style="mask-type:alpha">
    <rect width="44" height="44" fill="#fff" rx="14"/>
  </mask>
  <g mask="url(#a)">
    <path fill="#fff" fill-rule="evenodd" d="M25.516 30.875c-.99.99-2.162 1.484-3.516 1.484s-2.526-.494-3.516-1.484c-.99-.99-1.484-2.162-1.484-3.516v-10c0-1.354.495-2.526 1.484-3.515.99-.99 2.162-1.485 3.516-1.485s2.526.495 3.516 1.485c.99.99 1.484 2.161 1.484 3.515v10c0 1.354-.495 2.526-1.484 3.516Zm-1.875 7.656V44h-3.282v-5.469c-2.76-.416-5.117-1.68-7.07-3.789-1.953-2.11-2.93-4.57-2.93-7.383h2.813c0 2.448.872 4.466 2.617 6.055 1.745 1.589 3.815 2.383 6.211 2.383 2.396 0 4.466-.794 6.21-2.383 1.746-1.588 2.618-3.607 2.618-6.055h2.813c0 2.813-.977 5.274-2.93 7.383-1.953 2.11-4.31 3.373-7.07 3.79Z" clip-rule="evenodd"/>
  </g>
</svg>
