<svg width="12" height="15" viewBox="0 0 12 15" fill="none" xmlns="http://www.w3.org/2000/svg">
<path d="M9.97266 7.26172H11.2383C11.2383 8.52734 10.793 9.64062 9.90234 10.6016C9.03516 11.5391 7.98047 12.1016 6.73828 12.2891V14.75H5.26172V12.2891C4.01953 12.1016 2.95312 11.5391 2.0625 10.6016C1.19531 9.64062 0.761719 8.52734 0.761719 7.26172H2.02734C2.02734 8.36328 2.41406 9.27734 3.1875 10.0039C3.98438 10.707 4.92188 11.0586 6 11.0586C7.07812 11.0586 8.00391 10.707 8.77734 10.0039C9.57422 9.27734 9.97266 8.36328 9.97266 7.26172ZM7.58203 8.84375C7.13672 9.28906 6.60938 9.51172 6 9.51172C5.39062 9.51172 4.86328 9.28906 4.41797 8.84375C3.97266 8.39844 3.75 7.87109 3.75 7.26172V2.76172C3.75 2.15234 3.97266 1.625 4.41797 1.17969C4.86328 0.734375 5.39062 0.511719 6 0.511719C6.60938 0.511719 7.13672 0.734375 7.58203 1.17969C8.02734 1.625 8.25 2.15234 8.25 2.76172V7.26172C8.25 7.87109 8.02734 8.39844 7.58203 8.84375Z" fill="#6B59CC"/>
</svg>
