<svg width="559" height="185" viewBox="0 0 559 185" fill="none" xmlns="http://www.w3.org/2000/svg">
<mask id="mask0_0_979" style="mask-type:alpha" maskUnits="userSpaceOnUse" x="0" y="0" width="559" height="185">
<rect width="559" height="185" fill="white"/>
</mask>
<g mask="url(#mask0_0_979)">
<path opacity="0.328939" fill-rule="evenodd" clip-rule="evenodd" d="M57.9998 278.26C70.4836 283.372 83.8463 286.001 97.3387 286C97.7915 286 98.246 285.997 98.6995 285.991C140.624 285.431 178.15 259.89 194 221.128L193.567 220.951C171.943 273.906 111.207 299.421 58.1764 277.828C15.7761 260.563 -4.65326 212.07 12.6362 169.73C26.458 135.881 65.2798 119.572 99.1763 133.375C112.208 138.681 122.595 148.939 128.052 161.893C133.509 174.847 133.59 189.435 128.276 202.448C124.029 212.847 115.82 221.135 105.454 225.49C95.0877 229.845 83.4136 229.909 72.9999 225.669C55.6756 218.614 47.3582 198.872 54.4225 181.572C60.0774 167.769 75.8538 161.141 89.6893 166.756C100.723 171.264 106.022 183.84 101.533 194.869C97.9395 203.668 87.8834 207.893 79.0717 204.304C75.698 202.931 73.0089 200.275 71.596 196.921C70.1832 193.568 70.1623 189.791 71.538 186.422C73.8256 180.839 80.207 178.158 85.8034 180.429C90.2524 182.247 92.3886 187.318 90.5787 191.765C89.1322 195.295 85.0973 196.99 81.5587 195.554C78.7517 194.411 77.4041 191.212 78.5486 188.409C79.4567 186.192 81.9901 185.128 84.2117 186.03C85.9633 186.746 86.8044 188.742 86.0919 190.493C85.5281 191.868 83.9561 192.529 82.5773 191.969C81.4993 191.529 80.9817 190.3 81.4201 189.223C81.7635 188.386 82.7203 187.984 83.5596 188.324C84.2066 188.588 84.5173 189.326 84.2541 189.972C84.0521 190.465 83.4886 190.702 82.9945 190.501C82.6236 190.35 82.4455 189.927 82.5963 189.556C82.6322 189.468 82.6913 189.39 82.7674 189.333C82.7146 189.385 82.6729 189.447 82.6449 189.516C82.582 189.67 82.5829 189.842 82.6474 189.995C82.7119 190.149 82.8346 190.27 82.9887 190.333C83.1669 190.405 83.3666 190.404 83.544 190.33C83.7214 190.255 83.8619 190.113 83.9346 189.935C84.111 189.502 83.9028 189.008 83.4693 188.831C82.9569 188.622 82.3721 188.868 82.1631 189.38C81.915 189.989 82.2079 190.685 82.8179 190.934C83.5513 191.232 84.3878 190.88 84.6873 190.149C85.0478 189.263 84.6224 188.253 83.7364 187.891C82.6577 187.453 81.4277 187.97 80.9869 189.046C80.4511 190.363 81.0836 191.864 82.4007 192.402C84.0188 193.059 85.8638 192.284 86.5251 190.669C87.335 188.68 86.3791 186.411 84.3883 185.597C81.9274 184.598 79.1211 185.777 78.1155 188.232C76.8773 191.274 78.3386 194.743 81.3821 195.987C85.16 197.52 89.4678 195.71 91.0119 191.941C92.9191 187.255 90.6681 181.912 85.98 179.997C80.1443 177.628 73.4901 180.424 71.1048 186.246C69.6823 189.729 69.7039 193.635 71.1648 197.103C72.6258 200.57 75.4065 203.317 78.8951 204.737C83.2415 206.507 88.114 206.48 92.4406 204.663C96.7672 202.845 100.194 199.386 101.966 195.045C106.552 183.778 101.139 170.929 89.8659 166.324C75.7912 160.611 59.7418 167.353 53.9893 181.395C50.5499 189.818 50.602 199.259 54.1341 207.644C57.6662 216.028 64.3889 222.667 72.8233 226.101C83.3519 230.389 95.1548 230.324 105.635 225.921C116.116 221.518 124.416 213.138 128.709 202.624C139.872 175.287 126.729 144.089 99.3529 132.942C82.9343 126.256 64.5285 126.358 48.1848 133.224C31.841 140.09 18.8979 153.158 12.203 169.553C3.82085 190.031 3.93809 212.998 12.5289 233.389C21.1196 253.781 37.4786 269.924 57.9998 278.26ZM82.8236 189.575C82.8335 189.569 82.8442 189.565 82.855 189.565C82.8654 189.565 82.8757 189.569 82.8853 189.575L83.0348 189C83.2038 189.146 83.2763 189.468 83.2034 189.748C83.1496 189.955 82.9992 190.054 82.8674 189.97C82.8283 189.945 82.7972 189.897 82.7808 189.835C82.7644 189.774 82.7642 189.706 82.7802 189.644C82.7883 189.613 82.8039 189.588 82.8236 189.575Z" fill="white"/>
<path opacity="0.328939" fill-rule="evenodd" clip-rule="evenodd" d="M542 136.26C554.484 141.372 567.846 144.001 581.339 144C581.792 144 582.246 143.997 582.699 143.991C624.624 143.431 662.15 117.89 678 79.1275L677.567 78.951C655.943 131.906 595.207 157.421 542.176 135.828C499.776 118.563 479.347 70.0701 496.636 27.7296C510.458 -6.11891 549.28 -22.4277 583.176 -8.62538C596.208 -3.31913 606.595 6.93924 612.052 19.893C617.509 32.8468 617.59 47.4348 612.276 60.4478C608.029 70.8468 599.82 79.1355 589.454 83.4903C579.088 87.8451 567.414 87.9093 557 83.6689C539.676 76.6145 531.358 56.8715 538.422 39.5716C544.077 25.7686 559.854 19.1411 573.689 24.7563C584.723 29.264 590.022 41.8401 585.533 52.869C581.939 61.6681 571.883 65.8926 563.072 62.3045C559.698 60.9308 557.009 58.275 555.596 54.9214C554.183 51.5678 554.162 47.7911 555.538 44.4221C557.826 38.839 564.207 36.1583 569.803 38.4294C574.252 40.247 576.389 45.3177 574.579 49.7646C573.132 53.2947 569.097 54.9898 565.559 53.5539C562.752 52.4108 561.404 49.2119 562.549 46.4089C563.457 44.1924 565.99 43.1281 568.212 44.0299C569.963 44.7457 570.804 46.7421 570.092 48.493C569.528 49.8683 567.956 50.5287 566.577 49.9695C565.499 49.5289 564.982 48.3003 565.42 47.2227C565.763 46.3856 566.72 45.9836 567.56 46.3239C568.207 46.5882 568.517 47.3256 568.254 47.9723C568.052 48.4652 567.489 48.7019 566.995 48.5013C566.624 48.3496 566.445 47.9268 566.596 47.556C566.632 47.4676 566.691 47.3904 566.767 47.3327C566.715 47.3849 566.673 47.4473 566.645 47.5161C566.582 47.6698 566.583 47.8423 566.647 47.9954C566.712 48.1485 566.835 48.2698 566.989 48.3325C567.167 48.4051 567.367 48.4041 567.544 48.3296C567.721 48.2551 567.862 48.1132 567.935 47.9353C568.111 47.502 567.903 47.0079 567.469 46.8309C566.957 46.6223 566.372 46.8679 566.163 47.3796C565.915 47.9894 566.208 48.6847 566.818 48.9339C567.551 49.2319 568.388 48.8805 568.687 48.1486C569.048 47.2631 568.622 46.2532 567.736 45.8913C566.658 45.4534 565.428 45.9701 564.987 47.0463C564.451 48.3628 565.084 49.864 566.401 50.4021C568.019 51.0587 569.864 50.2836 570.525 48.6694C571.335 46.6796 570.379 44.4106 568.388 43.5973C565.927 42.5983 563.121 43.7772 562.115 46.2325C560.877 49.2745 562.339 52.7432 565.382 53.9865C569.16 55.5198 573.468 53.71 575.012 49.941C576.919 45.2552 574.668 39.9119 569.98 37.9968C564.144 35.6284 557.49 38.4238 555.105 44.2458C553.682 47.7295 553.704 51.6348 555.165 55.1026C556.626 58.5704 559.406 61.3167 562.895 62.7372C567.242 64.507 572.114 64.4802 576.441 62.6627C580.767 60.8451 584.194 57.3856 585.966 53.0453C590.552 41.7776 585.139 28.929 573.866 24.3237C559.791 18.6112 543.742 25.3534 537.989 39.3953C534.55 47.8177 534.602 57.2595 538.134 65.6436C541.666 74.0276 548.389 80.6671 556.823 84.1015C567.352 88.3886 579.155 88.3236 589.635 83.9208C600.116 79.5179 608.416 71.1379 612.709 60.6242C623.872 33.2869 610.729 2.08917 583.353 -9.05807C566.934 -15.7436 548.529 -15.6422 532.185 -8.77629C515.841 -1.91034 502.898 11.1578 496.203 27.5532C487.821 48.0314 487.938 70.9977 496.529 91.3894C505.12 111.781 521.479 127.924 542 136.26ZM566.824 47.5753C566.834 47.5688 566.844 47.5653 566.855 47.5653C566.865 47.5653 566.876 47.5685 566.885 47.5748L567.035 47C567.204 47.1463 567.276 47.468 567.203 47.7485C567.15 47.9552 566.999 48.0543 566.867 47.9699C566.828 47.9449 566.797 47.8965 566.781 47.8354C566.764 47.7743 566.764 47.7055 566.78 47.6441C566.788 47.6131 566.804 47.5884 566.824 47.5753Z" fill="white"/>
<path opacity="0.21596" fill-rule="evenodd" clip-rule="evenodd" d="M207.808 117H251.192C252.19 116.999 252.999 116.203 253 115.222V70.7781C252.999 69.7966 252.19 69.0012 251.192 69H207.808C206.81 69.0012 206.001 69.7966 206 70.7781V115.222C206.001 116.203 206.81 116.999 207.808 117ZM206.723 70.7781C206.724 70.1892 207.209 69.7119 207.808 69.7112H251.192C251.791 69.7119 252.276 70.1892 252.277 70.7781V115.222C252.276 115.811 251.791 116.288 251.192 116.289H207.808C207.209 116.288 206.724 115.811 206.723 115.222V70.7781Z" fill="white"/>
<path opacity="0.8" d="M216.256 78C215.563 78 215 78.8954 215 80C215 81.1046 215.563 82 216.256 82H241.744C242.437 82 243 81.1046 243 80C243 78.8954 242.437 78 241.744 78H216.256Z" fill="white"/>
<path opacity="0.8" d="M216.259 84C215.809 83.9987 215.394 84.3796 215.169 84.9989C214.944 85.6183 214.944 86.3817 215.169 87.0011C215.394 87.6204 215.809 88.0013 216.259 88H241.744C242.438 88 243 87.1046 243 86C243 84.8954 242.438 84 241.744 84H216.259Z" fill="white"/>
<path d="M228.5 107C225.467 107 222.732 105.173 221.571 102.37C220.41 99.5677 221.052 96.3418 223.197 94.1969C225.342 92.0519 228.568 91.4103 231.37 92.5711C234.173 93.732 236 96.4667 236 99.5001C235.995 103.64 232.64 106.995 228.5 107V107Z" fill="#F6933E"/>
<path opacity="0.21596" d="M220.67 48.1233C230.491 46.2657 240.619 46.7823 250.197 49.6292C255.012 51.052 259.638 53.0415 263.976 55.555C268.397 58.1199 272.391 61.2773 276.235 64.6204C280.128 68.007 283.893 71.5443 287.958 74.7326C299.561 83.9382 313.966 88.9677 328.821 88.9999C330.048 89.0019 331.275 88.9683 332.5 88.8993C333.165 88.863 333.169 87.8324 332.5 87.869C317.358 88.6965 302.405 84.2119 290.259 75.2001C286.046 72.0738 282.2 68.4991 278.273 65.0351C274.466 61.6768 270.557 58.4099 266.238 55.7118C244.902 42.3707 217.668 42.8196 196.808 56.7806C197.025 57.0096 197.23 57.3151 197.408 57.6263C204.43 52.9517 212.338 49.7146 220.67 48.1233Z" fill="white"/>
<path opacity="0.21596" d="M193 65C195.761 65 198 62.7614 198 60C198 57.2386 195.761 55 193 55C190.239 55 188 57.2386 188 60C188 62.7614 190.239 65 193 65Z" fill="white"/>
<path opacity="0.21596" d="M393 136C395.761 136 398 133.761 398 131C398 128.239 395.761 126 393 126C390.239 126 388 128.239 388 131C388 133.761 390.239 136 393 136Z" fill="white"/>
<path opacity="0.21596" fill-rule="evenodd" clip-rule="evenodd" d="M333.813 99H420.187C421.188 98.9989 421.999 98.1975 422 97.2086V52.7914C421.999 51.8025 421.188 51.0012 420.187 51H333.813C332.812 51.0012 332.001 51.8025 332 52.7914V97.2086C332.001 98.1975 332.812 98.9988 333.813 99ZM332.725 52.7914C332.726 52.198 333.212 51.7172 333.813 51.7166H420.187C420.788 51.7172 421.274 52.198 421.275 52.7914V97.2086C421.274 97.802 420.788 98.2828 420.187 98.2834H333.813C333.212 98.2828 332.726 97.802 332.725 97.2086V52.7914Z" fill="white"/>
<path d="M346.5 75C350.642 75 354 71.6421 354 67.5C354 63.3579 350.642 60 346.5 60C342.358 60 339 63.3579 339 67.5C339 71.6421 342.358 75 346.5 75Z" fill="#F6933E"/>
<path opacity="0.8" d="M366.208 61C365.777 60.9987 365.378 61.3796 365.162 61.9989C364.946 62.6183 364.946 63.3817 365.162 64.0011C365.378 64.6204 365.777 65.0013 366.208 65H411.794C412.46 65 413 64.1046 413 63C413 61.8954 412.46 61 411.794 61H366.208Z" fill="white"/>
<path opacity="0.8" d="M363.259 69C362.809 68.9987 362.394 69.3796 362.169 69.9989C361.944 70.6183 361.944 71.3817 362.169 72.0011C362.394 72.6204 362.809 73.0013 363.259 73H388.744C389.438 73 390 72.1046 390 71C390 69.8954 389.438 69 388.744 69H363.259Z" fill="white"/>
<path opacity="0.8" d="M340.676 80C339.752 80 339 80.8973 339 82C339 83.1027 339.752 84 340.676 84H408.324C409.248 84 410 83.1027 410 82C410 80.8973 409.248 80 408.324 80H340.676Z" fill="white"/>
<path opacity="0.8" d="M340.676 88C339.752 88 339 88.8974 339 90C339 91.1026 339.752 92 340.676 92H408.324C409.248 92 410 91.1026 410 90C410 88.8974 409.248 88 408.324 88H340.676Z" fill="white"/>
<path opacity="0.21596" d="M341.206 137.809C343.65 138.878 346.068 140.018 348.597 140.862C350.725 141.569 352.904 142.102 355.113 142.453C359.547 143.153 364.057 143.181 368.499 142.537C372.963 141.896 377.314 140.592 381.416 138.667C384.106 137.41 386.662 135.878 389.045 134.094C388.682 133.507 388.687 133.534 388.493 133.167C386.51 134.658 384.402 135.972 382.192 137.091C378.19 139.119 373.921 140.533 369.521 141.286C365.106 142.053 360.605 142.133 356.168 141.524C353.954 141.215 351.768 140.725 349.63 140.059C347.174 139.236 344.765 138.272 342.414 137.171C337.625 135.051 332.304 132.976 327.041 134.438C326.438 134.609 325.848 134.827 325.275 135.087C324.656 135.364 325.191 136.299 325.807 136.024C330.841 133.773 336.461 135.735 341.206 137.809Z" fill="white"/>
<path d="M324 149H283L292.649 132.248C293.001 131.637 293.651 131.26 294.355 131.26C295.059 131.26 295.709 131.637 296.061 132.248L300.183 139.404L307.192 127.236C307.632 126.471 308.447 126 309.328 126C310.209 126 311.024 126.471 311.464 127.236L324 149Z" fill="#F6933E"/>
<path opacity="0.21596" fill-rule="evenodd" clip-rule="evenodd" d="M279.808 149H323.192C324.19 148.999 324.999 148.185 325 147.181V122.819C324.999 121.815 324.19 121.001 323.192 121H279.808C278.81 121.001 278.001 121.815 278 122.819V147.181C278.001 148.185 278.81 148.999 279.808 149ZM278.723 122.819C278.724 122.216 279.209 121.728 279.808 121.728L323.192 121.728C323.791 121.728 324.276 122.216 324.277 122.819V147.181C324.276 147.784 323.791 148.272 323.192 148.273H279.808C279.209 148.272 278.724 147.784 278.723 147.181V122.819Z" fill="white"/>
<path d="M409.66 129.331L401.821 133.186C399.024 134.561 396.324 134.326 395.29 131.457V131.457C394.792 130.076 394.941 128.553 395.699 127.287C396.456 126.021 397.747 125.138 399.232 124.869L406.682 123.523L438.588 113.271L457.915 100L465 110.931L442.668 122.601L409.66 129.331Z" fill="#FFB8B8"/>
<path d="M502 237.092L494.738 240.067L460.077 194.454L449.183 248L441.921 246.678C437.263 200.514 433.464 153.427 438.125 131.157L465.028 130L477.242 169.003L483.184 195.445L502 237.092Z" fill="#2F2E41"/>
<path d="M456 83C462.627 83 468 77.6274 468 71C468 64.3726 462.627 59 456 59C449.373 59 444 64.3726 444 71C444 77.6274 449.373 83 456 83Z" fill="#FFB8B8"/>
<path d="M469 97L453.037 93.6071L451 80.375L462.207 78L469 97V97Z" fill="#FFB8B8"/>
<path d="M465.678 131H437L443.464 115.298C442.994 109.895 445.361 105.921 448.749 102.461L453.046 92.0222C459.99 87.6006 465.225 87.9309 470.799 93.6738C477.408 102.728 472.833 116.338 465.678 131Z" fill="#F6933E"/>
<path d="M451.751 164.423L450.96 173.247C450.677 176.397 449.046 178.572 446.005 177.867V177.867C444.54 177.528 443.295 176.557 442.594 175.21C441.894 173.863 441.808 172.273 442.36 170.856L445.126 163.751L453.076 130.842L451.751 107H465L463.344 132.521L451.751 164.423Z" fill="#FFB8B8"/>
<path d="M466 108H451L452.052 98.9932C452.195 95.7646 454.989 93.1692 458.495 93.0078V93.0078C460.306 92.9245 462.077 93.5113 463.415 94.6375C464.753 95.7638 465.546 97.3358 465.617 99.0032L466 108Z" fill="#F6933E"/>
<path d="M469.5 59C471.985 59 474 56.9853 474 54.5C474 52.0147 471.985 50 469.5 50C467.015 50 465 52.0147 465 54.5C465 56.9853 467.015 59 469.5 59Z" fill="#2F2E41"/>
<path d="M464.561 51.2498C464.712 48.8787 466.656 47.0358 469 47.0415C468.908 47.0297 468.817 47.0154 468.724 47.0093C466.277 46.8512 464.167 48.7333 464.009 51.2138C463.852 53.6944 465.707 55.8349 468.154 55.9958C468.247 56.0019 468.339 55.9995 468.432 55.9997C466.107 55.7011 464.411 53.621 464.561 51.2498Z" fill="#2F2E41"/>
<path d="M464.716 55.2244C460.872 51.915 449.846 56.1211 449.134 58.3461C443.936 59.0813 440 62.2288 440 67.8253V67.8253C443.091 69.1392 446.605 68.9773 450.405 67.8253C456.462 72.9478 456.877 79.3874 453.194 86.7838L457.725 86.8778L463.343 78.3578L463.611 87L473.999 86.7838V74.399C474.033 70.2811 473.119 66.2144 471.335 62.5362C469.716 59.2725 467.204 57.3668 464.716 55.2244Z" fill="#2F2E41"/>
<path d="M456 78C457.105 78 458 76.8807 458 75.5C458 74.1193 457.105 73 456 73C454.895 73 454 74.1193 454 75.5C454 76.8807 454.895 78 456 78Z" fill="#FFB8B8"/>
<path d="M183 76.9371C183 76.9371 184.245 54.6927 190.711 59.7472C197.178 64.8017 187.888 79 187.888 79L183 76.9371Z" fill="#FFB9B9"/>
<path d="M156.998 145C156.998 145 171.741 161.79 163.493 162.944C155.245 164.098 152 147.127 152 147.127L156.998 145Z" fill="#FFB9B9"/>
<path d="M138.446 65.0888V65.0888C142.32 66.0973 145.204 69.3076 145.762 73.2322L150.564 107.045L157.297 134.017C157.297 134.017 160.663 137.014 159.317 138.679C157.97 140.343 161 147.336 161 147.336L152.584 150C152.584 150 151.574 143.007 149.891 142.674C148.412 142.382 131.853 98.6265 127.862 88.0266C127.311 86.565 127 85.7338 127 85.7338C127 85.7338 127.673 63.4238 138.446 65.0888Z" fill="#575A89"/>
<path d="M115 138.512L120 196.533C120 196.533 120.167 231.217 125.5 237.93C130.833 244.643 131 248 131 248L142 242.566C142 242.566 136.333 233.51 137.5 232.124C138.219 231.245 138.731 230.227 139 229.139L136 193.336L141.667 131L115 138.512Z" fill="#2F2E41"/>
<path d="M157.452 137.637L160 192.319C160 192.319 136.748 241.761 134.2 243.071C132.666 243.885 131.517 245.302 131.015 247L117 243.398L123.37 232.92L137.385 197.885C137.385 197.885 139.615 196.903 140.252 193.628C140.889 190.354 142.163 190.354 138.978 189.699C135.793 189.044 135.793 185.77 135.793 185.77L125.281 136L157.452 137.637Z" fill="#2F2E41"/>
<path d="M158.023 44.2457C159.164 37.2186 154.391 30.5975 147.364 29.4571C140.337 28.3168 133.716 33.089 132.575 40.1162C131.435 47.1433 136.207 53.7644 143.235 54.9048C150.262 56.0451 156.883 51.2729 158.023 44.2457Z" fill="#FFB9B9"/>
<path d="M134.392 42C134.392 42 133.402 58.1281 132.081 59.7092C130.761 61.2904 145.944 60.9742 145.944 60.9742C145.944 60.9742 144.954 47.376 145.944 46.1111C146.935 44.8461 134.392 42 134.392 42Z" fill="#FFB9B9"/>
<path d="M157 143C157 143 120.737 139.749 114 143C114 143 116.48 133.677 115.839 132.703C115.373 131.991 116.659 105.435 116.255 90.1169C116.027 81.4732 114.058 73.0318 119.78 66.6143C121.728 64.4344 123.9 62.6044 126.193 61.7105C126.193 61.7105 125.552 55.5334 128.761 55.2087C128.761 55.2087 140.958 53.9058 145.448 57.8103C146.884 59.0499 147.787 62.8279 147.882 66.083C145.66 77.1555 146.447 89.4423 148.486 102.189C148.611 102.998 148.748 103.812 148.885 104.626C151.049 117.267 154.32 130.3 157 143Z" fill="#575A89"/>
<path d="M137.481 45.6458C138.579 45.5802 139.651 45.9518 140.741 46.0968C144.642 46.6154 148.7 43.7808 149.561 39.9357C149.63 39.4237 149.783 38.9264 150.012 38.4638C150.613 37.4822 151.98 37.2951 153.107 37.5208C154.234 37.7465 155.303 38.2747 156.45 38.3351C158.223 38.4282 159.924 37.3355 160.869 35.8309C161.761 34.2786 162.141 32.4834 161.953 30.7021L161.104 31.5951C160.758 30.8637 160.625 30.0499 160.719 29.2463C159.803 29.0022 158.827 29.2524 158.141 29.9069C157.392 29.9868 157.957 28.5154 157.401 28.0069C157.13 27.8403 156.807 27.7799 156.495 27.8372C154.901 27.8526 153.612 26.6318 152.356 25.6491C150.18 23.9502 147.635 22.7878 144.927 22.2559C143.128 21.9044 141.214 21.8479 139.507 22.519C138.129 23.1384 136.886 24.0217 135.847 25.1191C133.175 27.6922 130.809 30.7154 129.697 34.2568C128.793 37.1575 128.768 40.2612 129.624 43.1765C130.071 44.6904 131.421 49.8754 133.398 49.9961C135.881 50.1478 134.39 45.8305 137.481 45.6458Z" fill="#2F2E41"/>
<path d="M142.978 65L147.576 65.5021C147.576 65.5021 152.089 74.4281 151.761 76.2899C151.433 78.1517 150.72 77.0214 152.751 80.0001C154.782 82.9788 160.546 90.6783 161.26 91.8086C161.973 92.9389 181.431 77.8039 180.222 73.2692C180.222 73.2692 186.367 77.7637 189 78.362C189 78.362 168.947 105.173 166.152 108.604C163.358 112.036 161.109 111.331 157.269 109.296C153.428 107.262 134 86.9698 134 86.9698L142.978 65Z" fill="#575A89"/>
<path opacity="0.1" d="M148 106L133 89.3723L136.796 88L147.625 103.498C147.742 104.329 147.871 105.165 148 106Z" fill="black"/>
</g>
</svg>
